# xmcd
#
# Track frame offsets: 
#        150
#        17855
#        34669
#        49949
#        67821
#        84395
#        102321
#        119210
#        134486
#        150127
#        166022
#        182125
#        198261
#        213393
#        229523
#        244061
#        260033
#        276100
#        291032
#
# Disc length: 4077 seconds
#
# Revision: 0
# Processed by: cddbd v1.5.2PL0 Copyright (c) Steve Scherf et al.
# Submitted via: ExactAudioCopy v1.0b3
#
DISCID=090feb13
DTITLE=Various Artist - Ultimate R&B: The Love Collection 2011
DYEAR=2011
DGENRE=R&B
TTITLE0=Rihanna - Only Girl (In the World) (Album Version)
TTITLE1=Katy Perry feat. Snoop Dogg - California Gurls (Manhattan Cliq
TTITLE1=ue Radio Edit)
TTITLE2=Taio Cruz - Dynamite
TTITLE3=Nelly - Just a Dream (Main)
TTITLE4=Justin Bieber - Somebody to Love (Album Version)
TTITLE5=will.i.am, Nicki Minaj - Check it Out (Main Radio Mix)
TTITLE6=Mohombi - Bumpy Ride
TTITLE7=Cheryl Cole - Promise This
TTITLE8=Maroon 5 - Misery (Compilation Version)
TTITLE9=Nelly Furtado - Night is Young
TTITLE10=Jamiroquai - White Knuckle Ride
TTITLE11=Forever and a Day - Kelly Rowland
TTITLE12=N.E.R.D. feat. Nelly Furtado - Hot-N-Fun
TTITLE13=Stromae feat. Kanye West - Alors On Danse
TTITLE14=Kid Cudi feat. Kanye West - Erase Me
TTITLE15=Leighton Meester feat. Robin Thicke - Somebody to Love
TTITLE16=Major Lazer - Pon De Floor feat. Vybz Kartel
TTITLE17=The Saturdays feat. Flo Rida - Higher
TTITLE18=Jackson 5 - Never Can Say Goodbye (The Neptunes Remix)
EXTD=
EXTT0=
EXTT1=
EXTT2=
EXTT3=
EXTT4=
EXTT5=
EXTT6=
EXTT7=
EXTT8=
EXTT9=
EXTT10=
EXTT11=
EXTT12=
EXTT13=
EXTT14=
EXTT15=
EXTT16=
EXTT17=
EXTT18=
PLAYORDER=
